<svg preserveAspectRatio="none" width="100%" height="100%" overflow="visible" style="display: block;" viewBox="0 0 43 44.5" fill="none" xmlns="http://www.w3.org/2000/svg">
<g id="Overlay">
<rect width="43" height="44.5" rx="21.5" fill="var(--fill-0, #1A73E8)" fill-opacity="0.1"/>
<path id="Icon" d="M18 32.5L16 31V27H15C14.45 27 13.9792 26.8042 13.5875 26.4125C13.1958 26.0208 13 25.55 13 25V17.5V17.5C12.7167 17.5 12.4792 17.4042 12.2875 17.2125C12.0958 17.0208 12 16.7833 12 16.5C12 16.2167 12.0958 15.9792 12.2875 15.7875C12.4792 15.5958 12.7167 15.5 13 15.5H16V14H15.5C15.2167 14 14.9792 13.9042 14.7875 13.7125C14.5958 13.5208 14.5 13.2833 14.5 13C14.5 12.7167 14.5958 12.4792 14.7875 12.2875C14.9792 12.0958 15.2167 12 15.5 12H18.5C18.7833 12 19.0208 12.0958 19.2125 12.2875C19.4042 12.4792 19.5 12.7167 19.5 13C19.5 13.2833 19.4042 13.5208 19.2125 13.7125C19.0208 13.9042 18.7833 14 18.5 14H18V15.5H21C21.2833 15.5 21.5208 15.5958 21.7125 15.7875C21.9042 15.9792 22 16.2167 22 16.5C22 16.7833 21.9042 17.0208 21.7125 17.2125C21.5208 17.4042 21.2833 17.5 21 17.5V17.5V25C21 25.55 20.8042 26.0208 20.4125 26.4125C20.0208 26.8042 19.55 27 19 27H18V32.5V32.5M15 25H19V23.5H17.25C17.05 23.5 16.875 23.425 16.725 23.275C16.575 23.125 16.5 22.95 16.5 22.75C16.5 22.55 16.575 22.375 16.725 22.225C16.875 22.075 17.05 22 17.25 22H19V20.5H17.25C17.05 20.5 16.875 20.425 16.725 20.275C16.575 20.125 16.5 19.95 16.5 19.75C16.5 19.55 16.575 19.375 16.725 19.225C16.875 19.075 17.05 19 17.25 19H19V17.5H15V25V25M25 32C24.45 32 23.9792 31.8042 23.5875 31.4125C23.1958 31.0208 23 30.55 23 30V23.5C23 23.0167 23.0833 22.6167 23.25 22.3C23.4167 21.9833 23.5917 21.7083 23.775 21.475C23.9583 21.2417 24.125 21.0542 24.275 20.9125C24.425 20.7708 24.5 20.6333 24.5 20.5V20V20C24.2167 20 23.9792 19.9042 23.7875 19.7125C23.5958 19.5208 23.5 19.2833 23.5 19C23.5 18.7167 23.5958 18.4792 23.7875 18.2875C23.9792 18.0958 24.2167 18 24.5 18H29.5C29.7833 18 30.0208 18.0958 30.2125 18.2875C30.4042 18.4792 30.5 18.7167 30.5 19C30.5 19.2833 30.4042 19.5208 30.2125 19.7125C30.0208 19.9042 29.7833 20 29.5 20V20V20.5C29.5 20.6333 29.5833 20.7833 29.75 20.95C29.9167 21.1167 30.1 21.3167 30.3 21.55C30.4833 21.7833 30.6458 22.0583 30.7875 22.375C30.9292 22.6917 31 23.0667 31 23.5V30C31 30.55 30.8042 31.0208 30.4125 31.4125C30.0208 31.8042 29.55 32 29 32H25V32M25 24H29V23.5C29 23.25 28.925 23.0333 28.775 22.85C28.625 22.6667 28.4583 22.4667 28.275 22.25C28.0917 22.0333 27.9167 21.7917 27.75 21.525C27.5833 21.2583 27.5 20.9167 27.5 20.5V20H26.5V20.5C26.5 20.9 26.4208 21.2333 26.2625 21.5C26.1042 21.7667 25.9333 22.0083 25.75 22.225C25.5667 22.4417 25.3958 22.6458 25.2375 22.8375C25.0792 23.0292 25 23.25 25 23.5V24V24M25 27H29V25.5H25V27V27M25 30H29V28.5H25V30V30M25 27V27H29V27H25V27" fill="var(--fill-0, #1A73E8)"/>
</g>
</svg>
