<svg preserveAspectRatio="none" width="100%" height="100%" overflow="visible" style="display: block;" viewBox="0 0 44.05 44.05" fill="none" xmlns="http://www.w3.org/2000/svg">
<g id="Overlay">
<rect width="44.05" height="44.05" rx="22.025" fill="var(--fill-0, #7E5260)" fill-opacity="0.1"/>
<path id="Icon" d="M22.025 32.05C21.7583 32.05 21.5042 32 21.2625 31.9C21.0208 31.8 20.8 31.6583 20.6 31.475L12.575 23.45C12.3917 23.25 12.25 23.0292 12.15 22.7875C12.05 22.5458 12 22.2917 12 22.025C12 21.7583 12.05 21.5 12.15 21.25C12.25 21 12.3917 20.7833 12.575 20.6L20.6 12.575C20.8 12.375 21.0208 12.2292 21.2625 12.1375C21.5042 12.0458 21.7583 12 22.025 12C22.2917 12 22.55 12.0458 22.8 12.1375C23.05 12.2292 23.2667 12.375 23.45 12.575L31.475 20.6C31.675 20.7833 31.8208 21 31.9125 21.25C32.0042 21.5 32.05 21.7583 32.05 22.025C32.05 22.2917 32.0042 22.5458 31.9125 22.7875C31.8208 23.0292 31.675 23.25 31.475 23.45L23.45 31.475C23.2667 31.6583 23.05 31.8 22.8 31.9C22.55 32 22.2917 32.05 22.025 32.05V32.05M22.025 30.05L30.05 22.025V22.025V22.025L22.025 14V14V14L14 22.025V22.025V22.025L22.025 30.05V30.05V30.05V30.05M21.025 23.025H23.025V17.025H21.025V23.025V23.025M22.025 26.025C22.3083 26.025 22.5458 25.9292 22.7375 25.7375C22.9292 25.5458 23.025 25.3083 23.025 25.025C23.025 24.7417 22.9292 24.5042 22.7375 24.3125C22.5458 24.1208 22.3083 24.025 22.025 24.025C21.7417 24.025 21.5042 24.1208 21.3125 24.3125C21.1208 24.5042 21.025 24.7417 21.025 25.025C21.025 25.3083 21.1208 25.5458 21.3125 25.7375C21.5042 25.9292 21.7417 26.025 22.025 26.025V26.025M22.025 22.025V22.025V22.025V22.025V22.025V22.025V22.025V22.025V22.025V22.025V22.025V22.025V22.025V22.025" fill="var(--fill-0, #7E5260)"/>
</g>
</svg>
