<svg preserveAspectRatio="none" width="100%" height="100%" overflow="visible" style="display: block;" viewBox="0 0 44 44" fill="none" xmlns="http://www.w3.org/2000/svg">
<g id="Overlay">
<rect width="44" height="44" rx="22" fill="var(--fill-0, #415F91)" fill-opacity="0.1"/>
<path id="Icon" d="M17 28H19V26H21V24H19V22H17V24H15V26H17V28V28M23 24.5H29V23H23V24.5V24.5M23 27.5H27V26H23V27.5V27.5M14 32C13.45 32 12.9792 31.8042 12.5875 31.4125C12.1958 31.0208 12 30.55 12 30V19C12 18.45 12.1958 17.9792 12.5875 17.5875C12.9792 17.1958 13.45 17 14 17H19V14C19 13.45 19.1958 12.9792 19.5875 12.5875C19.9792 12.1958 20.45 12 21 12H23C23.55 12 24.0208 12.1958 24.4125 12.5875C24.8042 12.9792 25 13.45 25 14V17H30C30.55 17 31.0208 17.1958 31.4125 17.5875C31.8042 17.9792 32 18.45 32 19V30C32 30.55 31.8042 31.0208 31.4125 31.4125C31.0208 31.8042 30.55 32 30 32H14V32M14 30H30V30V30V19V19V19H25V19C25 19.55 24.8042 20.0208 24.4125 20.4125C24.0208 20.8042 23.55 21 23 21H21C20.45 21 19.9792 20.8042 19.5875 20.4125C19.1958 20.0208 19 19.55 19 19V19H14V19V19V30V30V30V30M21 19H23V14H21V19V19M22 24.5V24.5V24.5V24.5V24.5V24.5V24.5V24.5V24.5V24.5V24.5V24.5V24.5V24.5V24.5V24.5V24.5V24.5V24.5V24.5V24.5V24.5" fill="var(--fill-0, #415F91)"/>
</g>
</svg>
