<svg preserveAspectRatio="none" width="100%" height="100%" overflow="visible" style="display: block;" viewBox="0 0 46 43" fill="none" xmlns="http://www.w3.org/2000/svg">
<g id="Overlay">
<rect width="46" height="43" rx="21.5" fill="var(--fill-0, white)" fill-opacity="0.2"/>
<path id="Icon" d="M12 31L23 12L34 31H12V31M23 28C23.2833 28 23.5208 27.9042 23.7125 27.7125C23.9042 27.5208 24 27.2833 24 27C24 26.7167 23.9042 26.4792 23.7125 26.2875C23.5208 26.0958 23.2833 26 23 26C22.7167 26 22.4792 26.0958 22.2875 26.2875C22.0958 26.4792 22 26.7167 22 27C22 27.2833 22.0958 27.5208 22.2875 27.7125C22.4792 27.9042 22.7167 28 23 28V28M22 25H24V20H22V25V25" fill="var(--fill-0, white)"/>
</g>
</svg>
