<svg preserveAspectRatio="none" width="100%" height="100%" overflow="visible" style="display: block;" viewBox="0 0 34 34" fill="none" xmlns="http://www.w3.org/2000/svg">
<g id="Overlay">
<rect width="34" height="34" rx="16" fill="var(--fill-0, #006948)" fill-opacity="0.1"/>
<path id="Icon" d="M19.5 16.75C19.15 16.75 18.8542 16.6292 18.6125 16.3875C18.3708 16.1458 18.25 15.85 18.25 15.5C18.25 15.15 18.3708 14.8542 18.6125 14.6125C18.8542 14.3708 19.15 14.25 19.5 14.25C19.85 14.25 20.1458 14.3708 20.3875 14.6125C20.6292 14.8542 20.75 15.15 20.75 15.5C20.75 15.85 20.6292 16.1458 20.3875 16.3875C20.1458 16.6292 19.85 16.75 19.5 16.75V16.75M14.5 16.75C14.15 16.75 13.8542 16.6292 13.6125 16.3875C13.3708 16.1458 13.25 15.85 13.25 15.5C13.25 15.15 13.3708 14.8542 13.6125 14.6125C13.8542 14.3708 14.15 14.25 14.5 14.25C14.85 14.25 15.1458 14.3708 15.3875 14.6125C15.6292 14.8542 15.75 15.15 15.75 15.5C15.75 15.85 15.6292 16.1458 15.3875 16.3875C15.1458 16.6292 14.85 16.75 14.5 16.75V16.75M17 22C16 22 15.0958 21.725 14.2875 21.175C13.4792 20.625 12.8833 19.9 12.5 19H21.5C21.1167 19.9 20.5208 20.625 19.7125 21.175C18.9042 21.725 18 22 17 22V22M17 26C15.75 26 14.5792 25.7625 13.4875 25.2875C12.3958 24.8125 11.4458 24.1708 10.6375 23.3625C9.82917 22.5542 9.1875 21.6042 8.7125 20.5125C8.2375 19.4208 8 18.25 8 17C8 15.75 8.2375 14.5792 8.7125 13.4875C9.1875 12.3958 9.82917 11.4458 10.6375 10.6375C11.4458 9.82917 12.3958 9.1875 13.4875 8.7125C14.5792 8.2375 15.75 8 17 8C18.25 8 19.4208 8.2375 20.5125 8.7125C21.6042 9.1875 22.5542 9.82917 23.3625 10.6375C24.1708 11.4458 24.8125 12.3958 25.2875 13.4875C25.7625 14.5792 26 15.75 26 17C26 18.25 25.7625 19.4208 25.2875 20.5125C24.8125 21.6042 24.1708 22.5542 23.3625 23.3625C22.5542 24.1708 21.6042 24.8125 20.5125 25.2875C19.4208 25.7625 18.25 26 17 26V26M17 24C18.9333 24 20.5833 23.3167 21.95 21.95C23.3167 20.5833 24 18.9333 24 17C24 15.0667 23.3167 13.4167 21.95 12.05C20.5833 10.6833 18.9333 10 17 10C16.9 10 16.8 10 16.7 10C16.6 10 16.5 10.0167 16.4 10.05C16.3 10.15 16.2333 10.2583 16.2 10.375C16.1667 10.4917 16.15 10.6167 16.15 10.75C16.15 11.1 16.2708 11.3958 16.5125 11.6375C16.7542 11.8792 17.05 12 17.4 12C17.55 12 17.6875 11.975 17.8125 11.925C17.9375 11.875 18.0667 11.85 18.2 11.85C18.4 11.85 18.5667 11.925 18.7 12.075C18.8333 12.225 18.9 12.4 18.9 12.6C18.9 12.9833 18.7208 13.2292 18.3625 13.3375C18.0042 13.4458 17.6833 13.5 17.4 13.5C16.65 13.5 16.0042 13.2292 15.4625 12.6875C14.9208 12.1458 14.65 11.5 14.65 10.75C14.65 10.7 14.65 10.65 14.65 10.6C14.65 10.55 14.6583 10.4833 14.675 10.4C13.2917 10.9 12.1667 11.7417 11.3 12.925C10.4333 14.1083 10 15.4667 10 17C10 18.9333 10.6833 20.5833 12.05 21.95C13.4167 23.3167 15.0667 24 17 24V24M17 17V17V17V17V17V17V17V17V17V17" fill="var(--fill-0, #006948)"/>
</g>
</svg>
