<svg preserveAspectRatio="none" width="100%" height="100%" overflow="visible" style="display: block;" viewBox="0 0 18 18" fill="none" xmlns="http://www.w3.org/2000/svg">
<g id="Container">
<path id="Icon" d="M5.625 18C4.05833 18 2.72917 17.4542 1.6375 16.3625C0.545833 15.2708 0 13.9417 0 12.375C0 11.625 0.141667 10.9083 0.425 10.225C0.708333 9.54167 1.11667 8.93333 1.65 8.4L8.4 1.65C8.93333 1.11667 9.54167 0.708333 10.225 0.425C10.9083 0.141667 11.625 0 12.375 0C13.9417 0 15.2708 0.545833 16.3625 1.6375C17.4542 2.72917 18 4.05833 18 5.625C18 6.375 17.8583 7.09167 17.575 7.775C17.2917 8.45833 16.8833 9.06667 16.35 9.6L9.6 16.35C9.06667 16.8833 8.45833 17.2917 7.775 17.575C7.09167 17.8583 6.375 18 5.625 18V18M12.275 10.85L14.95 8.2C15.2833 7.86667 15.5417 7.475 15.725 7.025C15.9083 6.575 16 6.10833 16 5.625C16 4.625 15.6458 3.77083 14.9375 3.0625C14.2292 2.35417 13.375 2 12.375 2C11.8917 2 11.425 2.09167 10.975 2.275C10.525 2.45833 10.1333 2.71667 9.8 3.05L7.15 5.725L12.275 10.85V10.85M5.625 16C6.10833 16 6.575 15.9083 7.025 15.725C7.475 15.5417 7.86667 15.2833 8.2 14.95L10.85 12.275L5.725 7.15L3.05 9.8C2.71667 10.1333 2.45833 10.525 2.275 10.975C2.09167 11.425 2 11.8917 2 12.375C2 13.375 2.35417 14.2292 3.0625 14.9375C3.77083 15.6458 4.625 16 5.625 16V16" fill="var(--fill-0, #1A73E8)"/>
</g>
</svg>
