<svg preserveAspectRatio="none" width="100%" height="100%" overflow="visible" style="display: block;" viewBox="0 0 40 28" fill="none" xmlns="http://www.w3.org/2000/svg">
<g id="Overlay">
<rect width="40" height="28" rx="14" fill="var(--fill-0, #1A73E8)" fill-opacity="0.1"/>
<path id="Icon" d="M8 20V18.425C8 17.7083 8.36667 17.125 9.1 16.675C9.83333 16.225 10.8 16 12 16C12.2167 16 12.425 16.0042 12.625 16.0125C12.825 16.0208 13.0167 16.0417 13.2 16.075C12.9667 16.425 12.7917 16.7917 12.675 17.175C12.5583 17.5583 12.5 17.9583 12.5 18.375V20H8V20M14 20V18.375C14 17.8417 14.1458 17.3542 14.4375 16.9125C14.7292 16.4708 15.1417 16.0833 15.675 15.75C16.2083 15.4167 16.8458 15.1667 17.5875 15C18.3292 14.8333 19.1333 14.75 20 14.75C20.8833 14.75 21.6958 14.8333 22.4375 15C23.1792 15.1667 23.8167 15.4167 24.35 15.75C24.8833 16.0833 25.2917 16.4708 25.575 16.9125C25.8583 17.3542 26 17.8417 26 18.375V20H14V20M27.5 20V18.375C27.5 17.9417 27.4458 17.5333 27.3375 17.15C27.2292 16.7667 27.0667 16.4083 26.85 16.075C27.0333 16.0417 27.2208 16.0208 27.4125 16.0125C27.6042 16.0042 27.8 16 28 16C29.2 16 30.1667 16.2208 30.9 16.6625C31.6333 17.1042 32 17.6917 32 18.425V20H27.5V20M16.125 18H23.9V18C23.7333 17.6667 23.2708 17.375 22.5125 17.125C21.7542 16.875 20.9167 16.75 20 16.75C19.0833 16.75 18.2458 16.875 17.4875 17.125C16.7292 17.375 16.275 17.6667 16.125 18V18V18M12 15C11.45 15 10.9792 14.8042 10.5875 14.4125C10.1958 14.0208 10 13.55 10 13C10 12.4333 10.1958 11.9583 10.5875 11.575C10.9792 11.1917 11.45 11 12 11C12.5667 11 13.0417 11.1917 13.425 11.575C13.8083 11.9583 14 12.4333 14 13C14 13.55 13.8083 14.0208 13.425 14.4125C13.0417 14.8042 12.5667 15 12 15V15M28 15C27.45 15 26.9792 14.8042 26.5875 14.4125C26.1958 14.0208 26 13.55 26 13C26 12.4333 26.1958 11.9583 26.5875 11.575C26.9792 11.1917 27.45 11 28 11C28.5667 11 29.0417 11.1917 29.425 11.575C29.8083 11.9583 30 12.4333 30 13C30 13.55 29.8083 14.0208 29.425 14.4125C29.0417 14.8042 28.5667 15 28 15V15M20 14C19.1667 14 18.4583 13.7083 17.875 13.125C17.2917 12.5417 17 11.8333 17 11C17 10.15 17.2917 9.4375 17.875 8.8625C18.4583 8.2875 19.1667 8 20 8C20.85 8 21.5625 8.2875 22.1375 8.8625C22.7125 9.4375 23 10.15 23 11C23 11.8333 22.7125 12.5417 22.1375 13.125C21.5625 13.7083 20.85 14 20 14V14M20 12C20.2833 12 20.5208 11.9042 20.7125 11.7125C20.9042 11.5208 21 11.2833 21 11C21 10.7167 20.9042 10.4792 20.7125 10.2875C20.5208 10.0958 20.2833 10 20 10C19.7167 10 19.4792 10.0958 19.2875 10.2875C19.0958 10.4792 19 10.7167 19 11C19 11.2833 19.0958 11.5208 19.2875 11.7125C19.4792 11.9042 19.7167 12 20 12V12M20.025 18V18V18V18V18V18V18V18V18M20 11V11V11V11V11V11V11V11V11V11" fill="var(--fill-0, #1A73E8)"/>
</g>
</svg>
