<svg preserveAspectRatio="none" width="100%" height="100%" overflow="visible" style="display: block;" viewBox="0 0 20 34" fill="none" xmlns="http://www.w3.org/2000/svg">
<g id="Overlay">
<rect width="20" height="34" rx="10" fill="var(--fill-0, #A33D23)" fill-opacity="0.1"/>
<path id="Icon" d="M10 26C9.45 26 8.97917 25.8042 8.5875 25.4125C8.19583 25.0208 8 24.55 8 24C8 23.45 8.19583 22.9792 8.5875 22.5875C8.97917 22.1958 9.45 22 10 22C10.55 22 11.0208 22.1958 11.4125 22.5875C11.8042 22.9792 12 23.45 12 24C12 24.55 11.8042 25.0208 11.4125 25.4125C11.0208 25.8042 10.55 26 10 26V26M8 20V8H12V20H8V20" fill="var(--fill-0, #A33D23)"/>
</g>
</svg>
