<svg preserveAspectRatio="none" width="100%" height="100%" overflow="visible" style="display: block;" viewBox="0 0 36 36" fill="none" xmlns="http://www.w3.org/2000/svg">
<g id="Overlay">
<rect width="36" height="36" rx="16" fill="var(--fill-0, #F59E0B)" fill-opacity="0.1"/>
<path id="Icon" d="M11 28C10.45 28 9.97917 27.8042 9.5875 27.4125C9.19583 27.0208 9 26.55 9 26V14.725C8.7 14.5417 8.45833 14.3042 8.275 14.0125C8.09167 13.7208 8 13.3833 8 13V10C8 9.45 8.19583 8.97917 8.5875 8.5875C8.97917 8.19583 9.45 8 10 8H26C26.55 8 27.0208 8.19583 27.4125 8.5875C27.8042 8.97917 28 9.45 28 10V13C28 13.3833 27.9083 13.7208 27.725 14.0125C27.5417 14.3042 27.3 14.5417 27 14.725V26C27 26.55 26.8042 27.0208 26.4125 27.4125C26.0208 27.8042 25.55 28 25 28H11V28M11 15V26V26V26H25V26V26V15H11V15M10 13H26V13V13V10V10V10H10V10V10V13V13V13V13M15 20H21V18H15V20V20M18 20.5V20.5V20.5V20.5V20.5V20.5V20.5V20.5V20.5V20.5" fill="var(--fill-0, #D97706)"/>
</g>
</svg>
