<svg preserveAspectRatio="none" width="100%" height="100%" overflow="visible" style="display: block;" viewBox="0 0 25 22.5" fill="none" xmlns="http://www.w3.org/2000/svg">
<g id="Container">
<path id="Icon" d="M12.5 18.125C14.0625 18.125 15.3906 17.5781 16.4844 16.4844C17.5781 15.3906 18.125 14.0625 18.125 12.5C18.125 10.9375 17.5781 9.60938 16.4844 8.51562C15.3906 7.42188 14.0625 6.875 12.5 6.875C10.9375 6.875 9.60938 7.42188 8.51562 8.51562C7.42188 9.60938 6.875 10.9375 6.875 12.5C6.875 14.0625 7.42188 15.3906 8.51562 16.4844C9.60938 17.5781 10.9375 18.125 12.5 18.125V18.125M12.5 15.625C11.625 15.625 10.8854 15.3229 10.2812 14.7188C9.67708 14.1146 9.375 13.375 9.375 12.5C9.375 11.625 9.67708 10.8854 10.2812 10.2812C10.8854 9.67708 11.625 9.375 12.5 9.375C13.375 9.375 14.1146 9.67708 14.7188 10.2812C15.3229 10.8854 15.625 11.625 15.625 12.5C15.625 13.375 15.3229 14.1146 14.7188 14.7188C14.1146 15.3229 13.375 15.625 12.5 15.625V15.625M2.5 22.5C1.8125 22.5 1.22396 22.2552 0.734375 21.7656C0.244792 21.276 0 20.6875 0 20V5C0 4.3125 0.244792 3.72396 0.734375 3.23438C1.22396 2.74479 1.8125 2.5 2.5 2.5H6.4375L8.75 0H16.25L18.5625 2.5H22.5C23.1875 2.5 23.776 2.74479 24.2656 3.23438C24.7552 3.72396 25 4.3125 25 5V20C25 20.6875 24.7552 21.276 24.2656 21.7656C23.776 22.2552 23.1875 22.5 22.5 22.5H2.5V22.5M2.5 20H22.5V20V20V5V5V5H17.4375L15.1562 2.5H9.84375L7.5625 5H2.5V5V5V20V20V20V20M12.5 12.5V12.5V12.5V12.5V12.5V12.5V12.5V12.5V12.5V12.5V12.5V12.5V12.5V12.5V12.5V12.5V12.5V12.5" fill="var(--fill-0, white)"/>
</g>
</svg>
