<svg preserveAspectRatio="none" width="100%" height="100%" overflow="visible" style="display: block;" viewBox="0 0 77 77" fill="none" xmlns="http://www.w3.org/2000/svg">
<g id="Background visual element" opacity="0.1">
<path id="Icon" d="M26 51H43.5V46H26V51V51M26 41H51V36H26V41V41M26 31H51V26H26V31V31M21 61C19.625 61 18.4479 60.5104 17.4688 59.5312C16.4896 58.5521 16 57.375 16 56V21C16 19.625 16.4896 18.4479 17.4688 17.4688C18.4479 16.4896 19.625 16 21 16H56C57.375 16 58.5521 16.4896 59.5312 17.4688C60.5104 18.4479 61 19.625 61 21V56C61 57.375 60.5104 58.5521 59.5312 59.5312C58.5521 60.5104 57.375 61 56 61H21V61M21 56H56V56V56V21V21V21H21V21V21V56V56V56V56M21 21V21V21V21V56V56V56V56V56V56V21V21V21V21" fill="var(--fill-0, #191C1D)"/>
</g>
</svg>
