<svg preserveAspectRatio="none" width="100%" height="100%" overflow="visible" style="display: block;" viewBox="0 0 22.5 20" fill="none" xmlns="http://www.w3.org/2000/svg">
<g id="Container">
<path id="Icon" d="M0 12.5V10H8.75V12.5H0V12.5M0 7.5V5H13.75V7.5H0V7.5M0 2.5V0H13.75V2.5H0V2.5M11.25 20V16.1562L18.1562 9.28125C18.3438 9.09375 18.5521 8.95833 18.7812 8.875C19.0104 8.79167 19.2396 8.75 19.4688 8.75C19.7188 8.75 19.9583 8.79688 20.1875 8.89062C20.4167 8.98438 20.625 9.125 20.8125 9.3125L21.9688 10.4688C22.1354 10.6562 22.2656 10.8646 22.3594 11.0938C22.4531 11.3229 22.5 11.5521 22.5 11.7812C22.5 12.0104 22.4583 12.2448 22.375 12.4844C22.2917 12.724 22.1562 12.9375 21.9688 13.125L15.0938 20H11.25V20M20.625 11.7812V11.7812L19.4688 10.625V10.625L20.625 11.7812V11.7812M13.125 18.125H14.3125L18.0938 14.3125L17.5312 13.7188L16.9375 13.1562L13.125 16.9375V18.125V18.125M17.5312 13.7188L16.9375 13.1562V13.1562L18.0938 14.3125V14.3125L17.5312 13.7188V13.7188" fill="var(--fill-0, #105CB9)"/>
</g>
</svg>
