<svg preserveAspectRatio="none" width="100%" height="100%" overflow="visible" style="display: block;" viewBox="0 0 18 21" fill="none" xmlns="http://www.w3.org/2000/svg">
<g id="Container">
<path id="Icon" d="M0 21V11L1.575 6.375C1.70833 5.94167 1.95833 5.60417 2.325 5.3625C2.69167 5.12083 3.08333 5 3.5 5C3.63333 5 3.76667 5.0125 3.9 5.0375C4.03333 5.0625 4.16667 5.10833 4.3 5.175L8.45 7H11V9H8L5.3 7.825L4 11.75V21H0V21M6 18V16H18V18H6V18M16.5 15C16.0833 15 15.7292 14.8542 15.4375 14.5625C15.1458 14.2708 15 13.9167 15 13.5C15 13.0833 15.1458 12.7292 15.4375 12.4375C15.7292 12.1458 16.0833 12 16.5 12C16.9167 12 17.2708 12.1458 17.5625 12.4375C17.8542 12.7292 18 13.0833 18 13.5C18 13.9167 17.8542 14.2708 17.5625 14.5625C17.2708 14.8542 16.9167 15 16.5 15V15M10 15C9.45 15 8.97917 14.8042 8.5875 14.4125C8.19583 14.0208 8 13.55 8 13V12H6V10H9C9.28333 10 9.52083 10.0958 9.7125 10.2875C9.90417 10.4792 10 10.7167 10 11V12H12V10H14V13C14 13.55 13.8042 14.0208 13.4125 14.4125C13.0208 14.8042 12.55 15 12 15H10V15M5 4C4.45 4 3.97917 3.80417 3.5875 3.4125C3.19583 3.02083 3 2.55 3 2C3 1.45 3.19583 0.979167 3.5875 0.5875C3.97917 0.195833 4.45 0 5 0C5.55 0 6.02083 0.195833 6.4125 0.5875C6.80417 0.979167 7 1.45 7 2C7 2.55 6.80417 3.02083 6.4125 3.4125C6.02083 3.80417 5.55 4 5 4V4" fill="var(--fill-0, #1A73E8)"/>
</g>
</svg>
