<svg preserveAspectRatio="none" width="100%" height="100%" overflow="visible" style="display: block;" viewBox="0 0 15.975 14.7375" fill="none" xmlns="http://www.w3.org/2000/svg">
<g id="Container">
<path id="Icon" d="M7.9875 14.7375C7.05 14.7375 6.17188 14.5594 5.35313 14.2031C4.53438 13.8469 3.82188 13.3656 3.21563 12.7594C2.60938 12.1531 2.12813 11.4406 1.77188 10.6219C1.41563 9.80312 1.2375 8.925 1.2375 7.9875C1.2375 7.05 1.41563 6.17188 1.77188 5.35313C2.12813 4.53438 2.60938 3.82188 3.21563 3.21563C3.82188 2.60938 4.53438 2.12813 5.35313 1.77188C6.17188 1.41563 7.05 1.2375 7.9875 1.2375C8.925 1.2375 9.80312 1.41563 10.6219 1.77188C11.4406 2.12813 12.1531 2.60938 12.7594 3.21563C13.3656 3.82188 13.8469 4.53438 14.2031 5.35313C14.5594 6.17188 14.7375 7.05 14.7375 7.9875C14.7375 8.925 14.5594 9.80312 14.2031 10.6219C13.8469 11.4406 13.3656 12.1531 12.7594 12.7594C12.1531 13.3656 11.4406 13.8469 10.6219 14.2031C9.80312 14.5594 8.925 14.7375 7.9875 14.7375V14.7375M7.9875 7.9875V7.9875V7.9875V7.9875V7.9875V7.9875V7.9875V7.9875V7.9875V7.9875M10.0875 11.1375L11.1375 10.0875L8.7375 7.6875V4.2375H7.2375V8.2875L10.0875 11.1375V11.1375M3.1875 0L4.2375 1.05L1.05 4.2375L0 3.1875L3.1875 0V0M12.7875 0L15.975 3.1875L14.925 4.2375L11.7375 1.05L12.7875 0V0M7.9875 13.2375C9.45 13.2375 10.6906 12.7281 11.7094 11.7094C12.7281 10.6906 13.2375 9.45 13.2375 7.9875C13.2375 6.525 12.7281 5.28437 11.7094 4.26562C10.6906 3.24688 9.45 2.7375 7.9875 2.7375C6.525 2.7375 5.28437 3.24688 4.26562 4.26562C3.24688 5.28437 2.7375 6.525 2.7375 7.9875C2.7375 9.45 3.24688 10.6906 4.26562 11.7094C5.28437 12.7281 6.525 13.2375 7.9875 13.2375V13.2375" fill="var(--fill-0, #475569)"/>
</g>
</svg>
